<svg width="41" height="41" viewBox="0 0 41 41" fill="none" xmlns="http://www.w3.org/2000/svg">
<mask id="path-1-inside-1_539_263" fill="white">
<path d="M40.4999 16.663C40.4999 16.4505 40.4083 16.2467 40.2452 16.0964C40.0821 15.9462 39.861 15.8617 39.6303 15.8617H36.1521V11.1666C36.1521 5.22146 29.4565 0.75061 20.5 0.75061C11.5435 0.75061 4.84782 5.22146 4.84782 11.1666V15.8617H1.36956C1.13894 15.8617 0.917764 15.9462 0.754689 16.0964C0.591615 16.2467 0.5 16.4505 0.5 16.663V23.5215C0.5 23.734 0.591615 23.9378 0.754689 24.088C0.917764 24.2383 1.13894 24.3227 1.36956 24.3227H3.50869L4.84782 40.0107C4.86534 40.2119 4.96463 40.3996 5.12585 40.5363C5.28706 40.6729 5.49832 40.7485 5.71738 40.7479H35.213C35.3272 40.7566 35.4422 40.7445 35.5514 40.7121C35.6606 40.6798 35.7617 40.6278 35.849 40.5593C35.9363 40.4908 36.008 40.4071 36.06 40.3129C36.112 40.2188 36.1433 40.1161 36.1521 40.0107L37.5608 24.2586H39.6303C39.8572 24.2599 40.0757 24.1794 40.239 24.0343C40.3231 23.9597 40.3896 23.87 40.4344 23.7708C40.4793 23.6715 40.5016 23.5649 40.4999 23.4574V16.663ZM6.58694 11.1666C6.58694 6.13485 12.5348 2.35306 20.5 2.35306C28.4652 2.35306 34.413 6.13485 34.413 11.1666V15.8617H6.58694V11.1666ZM34.413 39.2095H6.58694L5.26521 24.3227H35.7347L34.413 39.2095ZM36.6912 22.7202H2.23913V17.4642H38.7608V22.7202H36.6912Z"/>
</mask>
<path d="M40.4999 16.663C40.4999 16.4505 40.4083 16.2467 40.2452 16.0964C40.0821 15.9462 39.861 15.8617 39.6303 15.8617H36.1521V11.1666C36.1521 5.22146 29.4565 0.75061 20.5 0.75061C11.5435 0.75061 4.84782 5.22146 4.84782 11.1666V15.8617H1.36956C1.13894 15.8617 0.917764 15.9462 0.754689 16.0964C0.591615 16.2467 0.5 16.4505 0.5 16.663V23.5215C0.5 23.734 0.591615 23.9378 0.754689 24.088C0.917764 24.2383 1.13894 24.3227 1.36956 24.3227H3.50869L4.84782 40.0107C4.86534 40.2119 4.96463 40.3996 5.12585 40.5363C5.28706 40.6729 5.49832 40.7485 5.71738 40.7479H35.213C35.3272 40.7566 35.4422 40.7445 35.5514 40.7121C35.6606 40.6798 35.7617 40.6278 35.849 40.5593C35.9363 40.4908 36.008 40.4071 36.06 40.3129C36.112 40.2188 36.1433 40.1161 36.1521 40.0107L37.5608 24.2586H39.6303C39.8572 24.2599 40.0757 24.1794 40.239 24.0343C40.3231 23.9597 40.3896 23.87 40.4344 23.7708C40.4793 23.6715 40.5016 23.5649 40.4999 23.4574V16.663ZM6.58694 11.1666C6.58694 6.13485 12.5348 2.35306 20.5 2.35306C28.4652 2.35306 34.413 6.13485 34.413 11.1666V15.8617H6.58694V11.1666ZM34.413 39.2095H6.58694L5.26521 24.3227H35.7347L34.413 39.2095ZM36.6912 22.7202H2.23913V17.4642H38.7608V22.7202H36.6912Z" fill="black"/>
<path d="M36.1521 15.8617H34.1521V17.8617H36.1521V15.8617ZM4.84782 15.8617V17.8617H6.84782V15.8617H4.84782ZM3.50869 24.3227L5.50144 24.1526L5.34524 22.3227H3.50869V24.3227ZM4.84782 40.0107L2.85506 40.1808L2.85536 40.1843L4.84782 40.0107ZM5.71738 40.7479V38.7478L5.71147 38.7479L5.71738 40.7479ZM35.213 40.7479L35.3659 38.7537L35.2895 38.7479H35.213V40.7479ZM36.1521 40.0107L34.16 39.8326L34.159 39.8446L36.1521 40.0107ZM37.5608 24.2586V22.2586H35.7317L35.5687 24.0805L37.5608 24.2586ZM39.6303 24.2586L39.6414 22.2586H39.6303V24.2586ZM40.239 24.0343L38.9114 22.5385L38.9109 22.5389L40.239 24.0343ZM40.4999 23.4574H38.4999V23.4731L38.5002 23.4888L40.4999 23.4574ZM34.413 15.8617V17.8617H36.413V15.8617H34.413ZM6.58694 15.8617H4.58694V17.8617H6.58694V15.8617ZM34.413 39.2095V41.2095H36.2433L36.4051 39.3864L34.413 39.2095ZM6.58694 39.2095L4.59478 39.3864L4.75665 41.2095H6.58694V39.2095ZM5.26521 24.3227V22.3227H3.07977L3.27304 24.4996L5.26521 24.3227ZM35.7347 24.3227L37.7269 24.4996L37.9201 22.3227H35.7347V24.3227ZM2.23913 22.7202H0.239127V24.7202H2.23913V22.7202ZM2.23913 17.4642V15.4642H0.239127V17.4642H2.23913ZM38.7608 17.4642H40.7608V15.4642H38.7608V17.4642ZM38.7608 22.7202V24.7202H40.7608V22.7202H38.7608ZM42.4999 16.663C42.4999 15.8648 42.1543 15.1359 41.6005 14.6256L38.89 17.5672C38.6623 17.3574 38.4999 17.0362 38.4999 16.663H42.4999ZM41.6005 14.6256C41.0521 14.1203 40.341 13.8617 39.6303 13.8617V17.8617C39.381 17.8617 39.1122 17.772 38.89 17.5672L41.6005 14.6256ZM39.6303 13.8617H36.1521V17.8617H39.6303V13.8617ZM38.1521 15.8617V11.1666H34.1521V15.8617H38.1521ZM38.1521 11.1666C38.1521 7.36102 35.9918 4.19516 32.7935 2.06467C29.6079 -0.0574238 25.2885 -1.24939 20.5 -1.24939V2.75061C24.6679 2.75061 28.1746 3.79407 30.5759 5.39367C32.9646 6.98488 34.1521 9.027 34.1521 11.1666H38.1521ZM20.5 -1.24939C15.7114 -1.24939 11.392 -0.0574238 8.2064 2.06467C5.00814 4.19516 2.84782 7.36102 2.84782 11.1666H6.84782C6.84782 9.027 8.03531 6.98488 10.424 5.39367C12.8253 3.79407 16.332 2.75061 20.5 2.75061V-1.24939ZM2.84782 11.1666V15.8617H6.84782V11.1666H2.84782ZM4.84782 13.8617H1.36956V17.8617H4.84782V13.8617ZM1.36956 13.8617C0.658934 13.8617 -0.0522051 14.1203 -0.600549 14.6256L2.10993 17.5672C1.88773 17.772 1.61895 17.8617 1.36956 17.8617V13.8617ZM-0.600549 14.6256C-1.15439 15.1359 -1.5 15.8648 -1.5 16.663H2.5C2.5 17.0362 2.33762 17.3575 2.10993 17.5672L-0.600549 14.6256ZM-1.5 16.663V23.5215H2.5V16.663H-1.5ZM-1.5 23.5215C-1.5 24.3197 -1.15439 25.0485 -0.600549 25.5589L2.10993 22.6172C2.33762 22.827 2.5 23.1483 2.5 23.5215H-1.5ZM-0.600549 25.5589C-0.0522051 26.0641 0.658934 26.3227 1.36956 26.3227V22.3227C1.61895 22.3227 1.88773 22.4125 2.10993 22.6172L-0.600549 25.5589ZM1.36956 26.3227H3.50869V22.3227H1.36956V26.3227ZM1.51594 24.4928L2.85506 40.1808L6.84057 39.8406L5.50144 24.1526L1.51594 24.4928ZM2.85536 40.1843C2.92094 40.9372 3.28999 41.6019 3.83259 42.0619L6.41911 39.0107C6.63928 39.1973 6.80974 39.4866 6.84027 39.8372L2.85536 40.1843ZM3.83259 42.0619C4.37087 42.5182 5.0475 42.7498 5.72329 42.7478L5.71147 38.7479C5.94914 38.7472 6.20326 38.8277 6.41911 39.0107L3.83259 42.0619ZM5.71738 42.7479H35.213V38.7479H5.71738V42.7479ZM35.0601 42.742C35.4158 42.7693 35.7753 42.7318 36.1198 42.6296L34.983 38.7946C35.1092 38.7572 35.2387 38.7439 35.3659 38.7537L35.0601 42.742ZM36.1198 42.6296C36.4644 42.5275 36.7929 42.3609 37.0838 42.1326L34.6141 38.9861C34.7305 38.8947 34.8567 38.832 34.983 38.7946L36.1198 42.6296ZM37.0838 42.1326C37.3751 41.904 37.6248 41.6163 37.8105 41.2802L34.3095 39.3456C34.3911 39.1979 34.4974 39.0776 34.6141 38.9861L37.0838 42.1326ZM37.8105 41.2802C37.9965 40.9436 38.1126 40.5684 38.1452 40.1768L34.159 39.8446C34.1741 39.6637 34.2275 39.494 34.3095 39.3456L37.8105 41.2802ZM38.1441 40.1889L39.5528 24.4368L35.5687 24.0805L34.16 39.8326L38.1441 40.1889ZM37.5608 26.2586H39.6303V22.2586H37.5608V26.2586ZM39.6193 26.2586C40.3187 26.2624 41.0196 26.0159 41.5672 25.5296L38.9109 22.5389C39.1317 22.3428 39.3958 22.2573 39.6414 22.2586L39.6193 26.2586ZM41.5667 25.53C41.8542 25.2748 42.0924 24.9584 42.2568 24.5948L38.6121 22.9467C38.6868 22.7816 38.7919 22.6445 38.9114 22.5385L41.5667 25.53ZM42.2568 24.5948C42.4215 24.2306 42.5061 23.8321 42.4997 23.4259L38.5002 23.4888C38.4972 23.2976 38.5372 23.1124 38.6121 22.9467L42.2568 24.5948ZM42.4999 23.4574V16.663H38.4999V23.4574H42.4999ZM8.58694 11.1666C8.58694 9.52971 9.53788 7.88718 11.6276 6.56192C13.7234 5.23284 16.8093 4.35306 20.5 4.35306V0.353064C16.2254 0.353064 12.3548 1.36418 9.48538 3.18393C6.60991 5.00748 4.58694 7.7717 4.58694 11.1666H8.58694ZM20.5 4.35306C24.1906 4.35306 27.2765 5.23284 29.3723 6.56192C31.462 7.88718 32.413 9.52971 32.413 11.1666H36.413C36.413 7.7717 34.39 5.00748 31.5145 3.18393C28.6451 1.36418 24.7745 0.353064 20.5 0.353064V4.35306ZM32.413 11.1666V15.8617H36.413V11.1666H32.413ZM34.413 13.8617H6.58694V17.8617H34.413V13.8617ZM8.58694 15.8617V11.1666H4.58694V15.8617H8.58694ZM34.413 37.2095H6.58694V41.2095H34.413V37.2095ZM8.57911 39.0326L7.25737 24.1458L3.27304 24.4996L4.59478 39.3864L8.57911 39.0326ZM5.26521 26.3227H35.7347V22.3227H5.26521V26.3227ZM33.7425 24.1458L32.4208 39.0326L36.4051 39.3864L37.7269 24.4996L33.7425 24.1458ZM36.6912 20.7202H2.23913V24.7202H36.6912V20.7202ZM4.23913 22.7202V17.4642H0.239127V22.7202H4.23913ZM2.23913 19.4642H38.7608V15.4642H2.23913V19.4642ZM36.7608 17.4642V22.7202H40.7608V17.4642H36.7608ZM38.7608 20.7202H36.6912V24.7202H38.7608V20.7202Z" fill="black" mask="url(#path-1-inside-1_539_263)"/>
</svg>
