<svg width="39" height="40" viewBox="0 0 39 40" fill="none" xmlns="http://www.w3.org/2000/svg">
<path d="M19.8793 29.5937C25.4236 29.5937 29.9182 25.1289 29.9182 19.6212C29.9182 14.1136 25.4236 9.6488 19.8793 9.6488C14.3349 9.6488 9.84033 14.1136 9.84033 19.6212C9.84033 25.1289 14.3349 29.5937 19.8793 29.5937Z" stroke="black" stroke-width="1.90612" stroke-miterlimit="10" stroke-linecap="round" stroke-linejoin="round"/>
<path d="M32.0784 13.1834H36.7802V32.4971C36.7802 35.148 34.6199 37.4202 31.8243 37.4202H7.42589C4.75732 37.4202 2.46997 35.2742 2.46997 32.4971V7.12415C2.46997 4.34702 4.75732 2.20105 7.42589 2.20105H31.9514C33.9846 2.20105 35.8907 3.71585 36.5261 5.48312L28.2662 5.35689C27.6308 5.35689 26.9954 5.86182 26.9954 6.61922L27.1225 8.89142" stroke="black" stroke-width="1.90612" stroke-miterlimit="10" stroke-linecap="round" stroke-linejoin="round"/>
<path d="M2.72412 16.7179H9.71324" stroke="black" stroke-width="1.90612" stroke-miterlimit="10" stroke-linecap="round" stroke-linejoin="round"/>
</svg>
