<svg width="65" height="64" viewBox="0 0 65 64" fill="none" xmlns="http://www.w3.org/2000/svg">
<path d="M32.7 46C36.5 42.5 38.9 37.5 38.9 32C38.9 26.4 36.5 21.4 32.7 18C29.3 15 24.9 13.1 20 13.1C9.5 13.1 1 21.6 1 32C1 42.5 9.5 51 20 51C24.9 50.9 29.3 49 32.7 46Z" fill="black"/>
<path d="M32.7 46C36.5 42.5 38.9 37.5 38.9 32C38.9 26.4 36.5 21.4 32.7 18" fill="black"/>
<path d="M45.4001 13C40.5001 13 36 14.9 32.7 17.9C32 18.5 31.4 19.2 30.8 19.9H34.6C35.1 20.5 35.6 21.2 36 21.9H29.3C28.9 22.5 28.5 23.2 28.2 23.9H37.1C37.4 24.6 37.7001 25.2 37.9001 25.9H27.4001C27.2001 26.6 27 27.2 26.8 27.9H38.4001C38.7001 29.2 38.8 30.5 38.8 31.9C38.8 34 38.5 36 37.8 37.9H27.3C27.5 38.6 27.8 39.3 28.1 39.9H37C36.7 40.6 36.3001 41.3 35.9001 41.9H29.2C29.6 42.6 30.1 43.3 30.6 43.9H34.4001C33.8001 44.6 33.2 45.3 32.5 45.9C35.9 48.9 40.3 50.8 45.2 50.8C55.7 50.8 64.1 42.3 64.1 31.8C64.4 21.5 55.9001 13 45.4001 13Z" fill="#4D4D4D"/>
<path d="M17.6 36.6H15.2L16.6 29.2L13.4 36.6H11.3L10.9 29.3L9.5 36.6H7.40002L9.20001 27H12.9L13.1 33L15.7 27H19.5L17.6 36.6Z" fill="white"/>
<path d="M44 36.6C43.4 36.8 42.8 36.9 42.3 36.9C41.1 36.9 40.4 36.3 40.4 35.2C40.4 35 40.4 34.7 40.5 34.5L40.6 33.7L40.7 33.1L41.8 27.1H44.1L43.8 28.9H45L44.7 30.8H43.5L42.9 34.1C42.9 34.2 42.9 34.4 42.9 34.4C42.9 34.8 43.2 35 43.7 35C44 35 44.2 35 44.3 34.9L44 36.6Z" fill="white"/>
<path d="M50.8 28.9C50.6 28.8 50.6 28.8 50.5 28.8C50.4 28.8 50.3 28.8 50.3 28.8C50.2 28.8 50.1 28.8 50 28.8C49.2 28.8 48.7001 29.1 47.9001 30.1L48.1 28.9H46.2L44.8 36.7H47.2C48 31.9 48.4 31.1 49.5 31.1C49.6 31.1 49.7 31.1 49.8 31.1L50.1 31.2L50.8 28.9Z" fill="white"/>
<path d="M34.5999 31.3C34.5999 32.3 35.2 33 36.4 33.5C37.4 33.9 37.4999 33.9999 37.4999 34.3999C37.4999 34.8999 37.0999 35.0999 36.0999 35.0999C35.3999 35.0999 34.6999 35 33.9999 34.8L33.7 36.5999H33.8L34.2 36.7C34.3 36.7 34.6 36.8 34.8 36.8C35.4 36.8 35.7999 36.8999 36.0999 36.8999C38.5999 36.8999 39.8 36.1 39.8 34.3C39.8 33.2 39.2999 32.5999 38.0999 32.0999C37.0999 31.6999 36.9999 31.6 36.9999 31.2C36.9999 30.8 37.4 30.5999 38.2 30.5999C38.7 30.5999 39.3 30.6 39.9 30.7L40.2 28.8999C39.6 28.7999 38.6999 28.7 38.0999 28.7C35.4999 28.7 34.5999 29.9 34.5999 31.3Z" fill="white"/>
<path d="M23.6 33.2C23.3 33.2 23.2 33.2 23.1 33.2C21.8 33.2 21.1 33.5999 21.1 34.3999C21.1 34.8999 21.4001 35.2 21.9001 35.2C22.8001 35.1 23.5 34.3 23.6 33.2ZM25.3 36.5999H23.3L23.4001 35.8C22.8001 36.4 22.0001 36.7 20.9001 36.7C19.6001 36.7 18.8 35.7999 18.8 34.5999C18.8 32.6999 20.3001 31.5999 22.9001 31.5999C23.2001 31.5999 23.5001 31.6 23.9001 31.7C24.0001 31.4 24 31.3 24 31.2C24 30.7 23.6 30.5 22.5 30.5C21.8 30.5 21.1 30.6 20.6 30.7L20.3 30.8L20.1 30.8999L20.4001 29.0999C21.6001 28.7999 22.3 28.7 23.2 28.7C25.2 28.7 26.3 29.5 26.3 31C26.3 31.4 26.3 31.7 26.1 32.5L25.6 35.3L25.5 35.8L25.4001 36.2V36.5L25.3 36.5999Z" fill="white"/>
<path d="M31.8 31.8C31.8 31.6 31.8 31.5 31.8 31.4C31.8 30.8 31.4 30.4 30.7 30.4C29.9 30.4 29.4 30.9 29.2 31.8H31.8ZM33 36.5C32.2 36.7 31.4 36.8 30.6 36.8C28 36.8 26.6 35.6 26.6 33.3C26.6 30.6 28.3 28.6 30.7 28.6C32.6 28.6 33.9 29.7 33.9 31.4C33.9 32 33.8 32.5 33.6 33.3H28.9C28.9 33.4 28.9 33.5 28.9 33.5C28.9 34.4 29.6 34.9 31 34.9C31.8 34.9 32.6 34.7 33.5 34.4L33 36.5Z" fill="white"/>
<path d="M55.7 32.0999C55.7 31.2999 55.4 30.5 54.4 30.5C53.2 30.5 52.5 31.9 52.5 33.2C52.5 34.3 53 35 53.9 35C54.4 35 55.5 34.2999 55.7 33.0999C55.7 32.7999 55.7 32.3999 55.7 32.0999ZM58.2 33.0999C57.8 35.6999 56 36.8999 53.6 36.8999C50.9 36.8999 49.9 35.3 49.9 33.3C49.9 30.5 51.7 28.7 54.5 28.7C57 28.7 58.2 30.2 58.2 32.2C58.3 32.6 58.3 32.5999 58.2 33.0999Z" fill="white"/>
</svg>
