<svg width="64" height="64" viewBox="0 0 64 64" fill="none" xmlns="http://www.w3.org/2000/svg">
<g clip-path="url(#clip0_422_1556)">
<path d="M64 32.5C64 43.2 55.4338 52 44.8 52C34.2646 52 25.6 43.2 25.6 32.5C25.6 21.8 34.1661 13 44.7015 13C55.4338 13 64 21.8 64 32.5Z" fill="#717171"/>
<path d="M38.3015 32.6C38.3015 31.2 38.1046 29.8 37.9077 28.5H26.0923C26.1908 27.8 26.3877 27.2 26.5846 26.4H37.12C36.9231 25.7 36.6277 25 36.3323 24.3H27.3723C27.6677 23.6 28.0615 23 28.4554 22.2H35.2492C34.8554 21.5 34.3631 20.8 33.7723 20.1H30.0308C30.6215 19.4 31.2123 18.8 32 18.1C28.6523 14.9 24.1231 13 19.1015 13C8.66461 13.3 0 21.8 0 32.5C0 43.2 8.56615 52 19.2 52C24.2215 52 28.6523 50 32.0985 46.9C32.7877 46.3 33.3785 45.6 34.0677 44.8H30.1292C29.6369 44.2 29.1446 43.5 28.7508 42.8H35.4462C35.84 42.2 36.2338 41.5 36.5292 40.7H27.5692C27.2738 40.1 26.9785 39.4 26.7815 38.6H37.3169C37.9077 36.8 38.3015 34.8 38.3015 32.6Z" fill="black"/>
<path d="M25.9939 37.5L26.2893 35.7C26.1908 35.7 25.9939 35.8 25.797 35.8C25.1077 35.8 25.0093 35.4 25.1077 35.2L25.6985 31.6H26.7816L27.077 29.6H26.0923L26.2893 28.4H24.2216C24.2216 28.4 23.04 35.2 23.04 36C23.04 37.2 23.7293 37.8 24.7139 37.8C25.3047 37.8 25.797 37.6 25.9939 37.5Z" fill="white"/>
<path d="M26.6831 34.2C26.6831 37.1 28.6523 37.8 30.2277 37.8C31.7046 37.8 32.3939 37.5 32.3939 37.5L32.7877 35.5C32.7877 35.5 31.7046 36 30.6216 36C28.357 36 28.7508 34.3 28.7508 34.3H32.8862C32.8862 34.3 33.1816 33 33.1816 32.4C33.1816 31.1 32.4923 29.4 30.2277 29.4C28.2585 29.3 26.6831 31.6 26.6831 34.2ZM30.2277 31.2C31.3108 31.2 31.1139 32.5 31.1139 32.6H28.8493C28.9477 32.5 29.1446 31.2 30.2277 31.2Z" fill="white"/>
<path d="M43.1261 37.5L43.52 35.2C43.52 35.2 42.5353 35.7 41.7476 35.7C40.3692 35.7 39.6799 34.6 39.6799 33.3C39.6799 30.8 40.8615 29.5 42.3384 29.5C43.323 29.5 44.2092 30.1 44.2092 30.1L44.5046 27.9C44.5046 27.9 43.323 27.4 42.1415 27.4C39.7784 27.4 37.5138 29.5 37.5138 33.4C37.5138 36 38.6953 37.7 41.1569 37.7C42.043 37.8 43.1261 37.5 43.1261 37.5Z" fill="white"/>
<path d="M14.8677 29.3C13.4892 29.3 12.4062 29.7001 12.4062 29.7001L12.1108 31.5C12.1108 31.5 12.9969 31.1 14.3754 31.1C15.0646 31.1 15.6554 31.2 15.6554 31.8C15.6554 32.2 15.5569 32.3 15.5569 32.3H14.6708C12.8985 32.3 11.0277 33 11.0277 35.4C11.0277 37.3 12.2092 37.7001 12.9969 37.7001C14.3754 37.7001 15.0646 36.8 15.1631 36.8L15.0646 37.6H16.7385L17.5262 31.9C17.5262 29.4 15.5569 29.3 14.8677 29.3ZM15.2616 33.9C15.2616 34.2 15.0646 35.9 13.8831 35.9C13.2923 35.9 13.0954 35.4001 13.0954 35.1C13.0954 34.6 13.3908 33.9 14.9662 33.9C15.1631 33.9 15.2616 33.9 15.2616 33.9Z" fill="white"/>
<path d="M19.4954 37.7C19.9877 37.7 22.5477 37.8 22.5477 35C22.5477 32.4 20.0861 32.9 20.0861 31.9C20.0861 31.4 20.48 31.2 21.1692 31.2C21.4646 31.2 22.5477 31.2999 22.5477 31.2999L22.843 29.4C22.843 29.4 22.1538 29.2 20.8738 29.2C19.3969 29.2 17.8215 29.8 17.8215 31.9C17.8215 34.3 20.3815 34.1 20.3815 35C20.3815 35.6 19.6923 35.7 19.2 35.7C18.3138 35.7 17.3292 35.4 17.3292 35.4L17.0338 37.2999C17.2307 37.4999 17.8215 37.7 19.4954 37.7Z" fill="white"/>
<path d="M60.0615 27.7L59.6677 30.5C59.6677 30.5 58.88 29.5 57.6985 29.5C55.8277 29.5 54.2523 31.8 54.2523 34.5C54.2523 36.2 55.04 37.9 56.8123 37.9C57.9939 37.9 58.7816 37.1 58.7816 37.1L58.6831 37.8H60.7508L62.2277 27.9L60.0615 27.7ZM59.0769 33.1C59.0769 34.2 58.5846 35.7 57.4031 35.7C56.7139 35.7 56.32 35.1 56.32 34C56.32 32.3 57.0092 31.3 57.9939 31.3C58.6831 31.4 59.0769 31.9 59.0769 33.1Z" fill="white"/>
<path d="M3.74157 37.6L4.92311 30.2L5.12003 37.6H6.49849L9.15695 30.2L8.07388 37.6H10.24L11.9139 27.7H8.56618L6.49849 33.8L6.40003 27.7H3.44619L1.77234 37.6H3.74157Z" fill="white"/>
<path d="M35.2492 37.6C35.84 34.2 35.9385 31.4 37.4154 31.9C37.6123 30.6 37.9077 30 38.1046 29.5H37.7108C36.8246 29.5 36.0369 30.7 36.0369 30.7L36.2338 29.6H34.2646L32.9846 37.6H35.2492Z" fill="white"/>
<path d="M47.8523 29.3C46.4739 29.3 45.3908 29.7001 45.3908 29.7001L45.0954 31.5C45.0954 31.5 45.9816 31.1 47.36 31.1C48.0492 31.1 48.64 31.2 48.64 31.8C48.64 32.2 48.5416 32.3 48.5416 32.3H47.6554C45.8831 32.3 44.0123 33 44.0123 35.4C44.0123 37.3 45.1939 37.7001 45.9816 37.7001C47.36 37.7001 48.0493 36.8 48.1477 36.8L48.0492 37.6H49.92L50.7077 31.9C50.7077 29.4 48.5416 29.3 47.8523 29.3ZM48.3446 33.9C48.3446 34.2 48.1477 35.9 46.9662 35.9C46.3754 35.9 46.1785 35.4001 46.1785 35.1C46.1785 34.6 46.4739 33.9 48.0492 33.9C48.2462 33.9 48.2462 33.9 48.3446 33.9Z" fill="white"/>
<path d="M52.283 37.6C52.8738 34.2 52.9723 31.4 54.4492 31.9C54.6461 30.6 54.9415 30 55.1384 29.5H54.7446C53.8584 29.5 53.0707 30.7 53.0707 30.7L53.2677 29.6H51.2984L50.0184 37.6H52.283Z" fill="white"/>
</g>
<defs>
<clipPath id="clip0_422_1556">
<rect width="64" height="39" fill="white" transform="translate(0 13)"/>
</clipPath>
</defs>
</svg>
