<svg width="64" height="64" viewBox="0 0 64 64" fill="none" xmlns="http://www.w3.org/2000/svg">
<g clip-path="url(#clip0_422_1554)">
<path d="M56.8889 24H44.6815C45.3926 28.25 49.3037 32.25 53.5704 32.25H63.2889C63.4074 31.875 63.4074 31.25 63.4074 30.875C63.4074 27.125 60.4445 24 56.8889 24Z" fill="#434343"/>
<path d="M45.7482 33V43.375H51.6741V37.875H56.8889C59.7334 37.875 62.2222 35.75 63.0519 33H45.7482Z" fill="black"/>
<path d="M24.8889 24V43.25H30.1037C30.1037 43.25 31.4074 43.25 32.1185 41.875C35.6741 34.5 36.7408 32.25 36.7408 32.25H37.4519V43.25H43.3778V24H38.163C38.163 24 36.8593 24.125 36.1482 25.375C33.1852 31.75 31.526 35 31.526 35H30.8148V24H24.8889Z" fill="black"/>
<path d="M0 43.375V24.125H5.92593C5.92593 24.125 7.5852 24.125 8.53335 26.875C10.9037 34.125 11.1408 35.125 11.1408 35.125C11.1408 35.125 11.6148 33.375 13.7481 26.875C14.6963 24.125 16.3556 24.125 16.3556 24.125H22.2815V43.375H16.3556V33H15.6444L12.3259 43.375H9.71853L6.40002 33H5.68891V43.375H0Z" fill="black"/>
</g>
<defs>
<clipPath id="clip0_422_1554">
<rect width="64" height="20" fill="white" transform="translate(0 24)"/>
</clipPath>
</defs>
</svg>
