<svg width="309" height="130" viewBox="0 0 309 130" fill="none" xmlns="http://www.w3.org/2000/svg">
<path d="M68.6255 79.7343C68.6255 79.9743 68.4455 80.5743 68.0855 81.5343C67.7255 82.3743 67.2455 82.9743 66.6455 83.3343C65.3255 83.3343 63.6455 83.3943 61.6055 83.5143C59.6855 83.5143 57.6455 83.5743 55.4855 83.6943C53.3255 83.6943 51.1655 83.6943 49.0055 83.6943C46.8455 83.6943 44.9255 83.6943 43.2455 83.6943C41.3255 83.6943 39.2255 83.6943 36.9455 83.6943C34.7855 83.5743 33.0455 83.3943 31.7255 83.1543C30.7655 83.1543 29.9855 83.6343 29.3855 84.5943C25.3055 91.5543 21.9455 97.5543 19.3055 102.594C16.7855 107.514 15.0455 111.234 14.0855 113.754C13.7255 114.834 13.5455 115.794 13.5455 116.634C13.5455 117.714 14.0255 118.674 14.9855 119.514C15.9455 120.234 18.1655 120.594 21.6455 120.594C22.3655 120.594 22.7255 120.834 22.7255 121.314C22.7255 121.674 22.4255 121.914 21.8255 122.034C21.1055 122.154 20.3855 122.214 19.6655 122.214C19.0655 122.214 18.4055 122.214 17.6855 122.214C13.9655 122.214 10.9655 122.154 8.68547 122.034C6.52547 121.914 4.84547 121.734 3.64547 121.494C2.44547 121.254 1.66547 120.954 1.30547 120.594C1.06547 120.234 0.945469 119.754 0.945469 119.154C0.945469 118.554 1.24547 117.654 1.84547 116.454C4.24547 111.894 7.18547 107.034 10.6655 101.874C14.1455 96.7143 17.1455 91.9143 19.6655 87.4743C23.5055 80.8743 27.4055 73.9743 31.3655 66.7743C35.3255 59.4543 38.7455 52.5543 41.6255 46.0743C42.1055 44.8743 41.8055 44.2143 40.7255 44.0943C39.8855 43.9743 38.6855 43.9143 37.1255 43.9143C35.6855 43.7943 34.4855 43.7343 33.5255 43.7343C32.9255 43.7343 32.5655 43.7343 32.4455 43.7343C32.4455 43.6143 32.4455 43.4343 32.4455 43.1943C32.4455 42.4743 32.7455 42.1143 33.3455 42.1143C35.3855 42.2343 38.0855 42.2943 41.4455 42.2943C44.8055 42.2943 47.9255 42.2943 50.8055 42.2943C53.4455 42.2943 56.3255 42.2343 59.4455 42.1143C62.6855 41.8743 65.9255 41.5743 69.1655 41.2143C72.4055 40.7343 75.5255 40.1943 78.5255 39.5943C81.5255 38.8743 84.1055 38.0343 86.2655 37.0743C86.5055 36.9543 86.7455 36.8943 86.9855 36.8943C87.5855 36.8943 87.8855 37.0743 87.8855 37.4343C86.8055 38.6343 85.9655 40.0143 85.3655 41.5743C84.8855 42.7743 84.1655 43.3743 83.2055 43.3743C81.0455 43.4943 78.7055 43.6143 76.1855 43.7343C73.6655 43.7343 71.0855 43.7943 68.4455 43.9143C65.8055 43.9143 63.2255 43.9743 60.7055 44.0943C58.3055 44.0943 56.2055 44.1543 54.4055 44.2743C53.4455 44.3943 52.7255 44.6343 52.2455 44.9943C51.8855 45.3543 51.4655 45.8943 50.9855 46.6143C49.9055 48.1743 48.5255 50.4543 46.8455 53.4543C45.1655 56.3343 43.3655 59.3943 41.4455 62.6343C39.6455 65.8743 37.9055 68.9943 36.2255 71.9943C34.6655 74.9943 33.4055 77.3943 32.4455 79.1943C32.4455 79.9143 33.4655 80.5743 35.5055 81.1743C37.5455 81.7743 40.4855 82.0743 44.3255 82.0743C48.5255 82.0743 52.6655 81.8943 56.7455 81.5343C60.9455 81.0543 64.7855 80.3343 68.2655 79.3743L68.6255 79.7343ZM146.745 3.95433C146.745 5.63434 146.085 8.09434 144.765 11.3343C143.445 14.5743 141.525 18.3543 139.005 22.6743C136.605 26.8743 133.605 31.4343 130.005 36.3543C126.525 41.1543 122.505 45.9543 117.945 50.7543C113.505 55.5543 108.585 60.1743 103.185 64.6143C97.7855 68.9343 92.0255 72.7743 85.9055 76.1343C84.8255 78.0543 83.3255 80.6343 81.4055 83.8743C79.4855 87.1143 77.5655 90.5343 75.6455 94.1343C73.8455 97.7343 72.2255 101.274 70.7855 104.754C69.4655 108.234 68.8055 111.174 68.8055 113.574C68.8055 117.414 70.5455 119.334 74.0255 119.334C77.0255 119.334 80.1455 118.494 83.3855 116.814C86.6255 115.134 89.6855 113.094 92.5655 110.694C95.5655 108.294 98.3255 105.774 100.845 103.134C103.485 100.374 105.705 97.9143 107.505 95.7543C108.345 94.9143 108.825 94.7343 108.945 95.2143C109.065 95.5743 108.885 95.9943 108.405 96.4743C106.245 99.1143 103.665 101.934 100.665 104.934C97.7855 107.934 94.6655 110.694 91.3055 113.214C88.0655 115.734 84.6455 117.834 81.0455 119.514C77.4455 121.194 73.8455 122.034 70.2455 122.034C67.1255 122.034 64.8455 121.314 63.4055 119.874C62.0855 118.314 61.4255 116.454 61.4255 114.294C61.4255 112.134 62.3255 109.074 64.1255 105.114C66.0455 101.034 68.2655 96.7743 70.7855 92.3343C73.3055 87.8943 75.8255 83.6943 78.3455 79.7343C80.8655 75.7743 82.7255 72.7743 83.9255 70.7343C85.9655 67.2543 88.0655 63.6543 90.2255 59.9343C92.5055 56.0943 94.7255 52.3743 96.8855 48.7743C99.0455 45.1743 101.085 41.7543 103.005 38.5143C105.045 35.1543 106.905 32.2143 108.585 29.6943C110.625 26.5743 112.725 23.6343 114.885 20.8743C117.045 18.1143 119.805 15.3543 123.165 12.5943C127.725 8.75434 131.925 5.81434 135.765 3.77434C139.605 1.73433 142.185 0.714334 143.505 0.714334C144.465 0.714334 145.245 1.01434 145.845 1.61434C146.445 2.09434 146.745 2.87434 146.745 3.95433ZM138.645 8.63434C138.645 6.71433 137.865 5.75433 136.305 5.75433C135.705 5.75433 135.045 5.93433 134.325 6.29433C133.605 6.65434 132.645 7.43434 131.445 8.63434C130.365 9.71433 128.985 11.2743 127.305 13.3143C125.745 15.3543 123.705 17.9943 121.185 21.2343C120.225 22.5543 118.845 24.4743 117.045 26.9943C115.365 29.5143 113.145 32.8743 110.385 37.0743C107.745 41.1543 104.505 46.2543 100.665 52.3743C96.9455 58.3743 92.5055 65.5143 87.3455 73.7943C94.5455 69.7143 101.265 64.7943 107.505 59.0343C113.865 53.1543 119.325 47.1543 123.885 41.0343C128.445 34.9143 132.045 28.9743 134.685 23.2143C137.325 17.4543 138.645 12.5943 138.645 8.63434ZM157.748 90.7143C155.708 93.4743 153.188 95.9943 150.188 98.2743C147.308 100.434 144.008 101.514 140.288 101.514C138.248 101.514 136.208 101.034 134.168 100.074C132.248 98.9943 130.688 97.4343 129.488 95.3943C128.648 97.3143 127.568 99.5343 126.248 102.054C124.928 104.454 123.368 106.914 121.568 109.434C119.768 111.834 117.728 114.054 115.448 116.094C113.288 118.134 110.948 119.814 108.428 121.134C106.268 122.094 104.468 122.574 103.028 122.574C98.708 122.574 96.548 120.654 96.548 116.814C96.548 114.654 96.908 112.434 97.628 110.154C98.468 107.874 99.488 105.654 100.688 103.494C101.888 101.334 103.148 99.2943 104.468 97.3743C105.908 95.4543 107.228 93.8943 108.428 92.6943C110.948 89.9343 113.828 87.5943 117.068 85.6743C120.308 83.7543 123.788 82.6143 127.508 82.2543C127.748 81.2943 128.108 80.2143 128.588 79.0143C129.068 77.6943 129.908 76.9143 131.108 76.6743C131.708 76.5543 132.308 76.4343 132.908 76.3143C133.508 76.1943 134.048 76.0143 134.528 75.7743C134.888 75.5343 135.248 75.5343 135.608 75.7743C135.968 75.8943 136.028 76.1943 135.788 76.6743C134.948 77.9943 134.288 79.6743 133.808 81.7143C133.448 83.7543 133.268 85.9743 133.268 88.3743C133.268 91.7343 133.868 94.4943 135.068 96.6543C136.388 98.8143 138.608 99.8943 141.728 99.8943C144.848 99.8943 147.668 98.8743 150.188 96.8343C152.708 94.7943 154.808 92.5743 156.488 90.1743C156.728 89.5743 157.088 89.3943 157.568 89.6343C158.168 89.8743 158.228 90.2343 157.748 90.7143ZM128.048 91.9743C127.808 90.8943 127.628 89.6343 127.508 88.1943C127.388 86.7543 127.328 85.3743 127.328 84.0543C127.328 83.4543 127.088 83.1543 126.608 83.1543C125.288 83.1543 123.908 83.6343 122.468 84.5943C121.028 85.4343 119.588 86.6343 118.148 88.1943C116.708 89.6343 115.268 91.3143 113.828 93.2343C112.388 95.1543 111.068 97.1343 109.868 99.1743C108.308 101.814 106.868 104.694 105.548 107.814C104.348 110.814 103.808 113.694 103.928 116.454C103.928 117.294 104.048 118.074 104.288 118.794C104.648 119.514 105.368 119.874 106.448 119.874C108.488 119.874 110.708 118.734 113.108 116.454C115.508 114.174 117.788 111.534 119.948 108.534C122.108 105.414 123.908 102.294 125.348 99.1743C126.908 96.0543 127.808 93.6543 128.048 91.9743ZM226.148 83.6943C224.588 84.1743 222.608 84.6543 220.208 85.1343C217.928 85.4943 215.528 85.8543 213.008 86.2143C210.608 86.5743 208.268 86.8743 205.988 87.1143C203.828 87.3543 202.088 87.5343 200.768 87.6543C200.168 87.7743 199.748 88.0743 199.508 88.5543C199.388 89.0343 199.328 89.5743 199.328 90.1743C199.328 93.4143 198.848 96.7743 197.888 100.254C197.048 103.614 195.908 106.854 194.468 109.974C193.148 112.974 191.648 115.734 189.968 118.254C188.288 120.654 186.608 122.574 184.928 124.014C182.888 125.814 180.848 127.194 178.808 128.154C176.888 129.114 174.548 129.594 171.788 129.594C168.668 129.594 166.208 128.634 164.408 126.714C162.608 124.794 161.708 122.274 161.708 119.154C161.708 117.834 161.828 116.574 162.068 115.374C159.788 116.694 157.268 118.014 154.508 119.334C151.748 120.654 149.048 121.314 146.408 121.314C144.968 121.314 143.768 120.894 142.808 120.054C141.968 119.094 141.548 117.714 141.548 115.914C141.548 113.754 142.148 111.294 143.348 108.534C144.668 105.654 146.168 102.834 147.848 100.074C149.648 97.1943 151.388 94.6143 153.068 92.3343C154.748 89.9343 156.008 88.1943 156.848 87.1143C157.208 86.6343 157.628 86.1543 158.108 85.6743C158.708 85.0743 159.368 84.6543 160.088 84.4143C161.048 84.1743 162.128 83.9343 163.328 83.6943C164.528 83.3343 165.488 83.0943 166.208 82.9743C166.688 82.9743 166.928 83.1543 166.928 83.5143C166.928 83.7543 166.568 83.9943 165.848 84.2343C165.248 84.4743 164.408 85.1343 163.328 86.2143C161.528 88.1343 159.728 90.5343 157.928 93.4143C156.248 96.1743 154.688 98.9943 153.248 101.874C151.808 104.634 150.668 107.274 149.828 109.794C148.988 112.314 148.568 114.294 148.568 115.734C148.568 116.454 148.808 117.114 149.288 117.714C149.768 118.314 150.428 118.614 151.268 118.614C151.868 118.614 153.068 118.314 154.868 117.714C156.788 117.114 159.308 115.794 162.428 113.754C163.508 109.074 165.188 104.514 167.468 100.074C169.748 95.5143 172.388 91.4343 175.388 87.8343C175.988 87.1143 177.008 86.0943 178.448 84.7743C179.888 83.4543 181.568 82.7943 183.488 82.7943C184.448 82.7943 184.988 83.1543 185.108 83.8743C185.348 84.4743 185.468 84.9543 185.468 85.3143C185.468 85.9143 185.228 87.0543 184.748 88.7343C184.388 90.4143 183.548 92.4543 182.228 94.8543C180.908 97.1343 179.108 99.7143 176.828 102.594C174.548 105.354 171.488 108.294 167.648 111.414C167.648 113.094 167.768 114.774 168.008 116.454C168.248 118.134 168.728 119.634 169.448 120.954C170.168 122.274 171.128 123.354 172.328 124.194C173.528 125.034 175.088 125.454 177.008 125.454C179.888 125.454 182.408 124.434 184.568 122.394C186.728 120.474 188.468 118.014 189.788 115.014C191.228 112.014 192.308 108.714 193.028 105.114C193.748 101.514 194.108 98.0943 194.108 94.8543C194.108 91.9743 193.928 89.6343 193.568 87.8343C193.328 86.0343 192.248 85.0143 190.328 84.7743C189.848 84.2943 189.908 83.9343 190.508 83.6943C191.228 83.6943 192.128 83.4543 193.208 82.9743C194.288 82.3743 195.068 82.0743 195.548 82.0743C195.788 82.0743 196.028 82.2543 196.268 82.6143C196.508 82.8543 196.988 83.1543 197.708 83.5143C198.548 83.7543 199.748 84.0543 201.308 84.4143C202.868 84.6543 205.088 84.7743 207.968 84.7743C211.448 84.7743 214.988 84.5343 218.588 84.0543C222.188 83.4543 224.708 82.9143 226.148 82.4343C226.628 82.3143 226.928 82.4343 227.048 82.7943C227.288 83.1543 226.988 83.4543 226.148 83.6943ZM180.968 88.9143C180.968 88.6743 180.848 88.1943 180.608 87.4743C180.488 86.7543 180.068 86.3943 179.348 86.3943C178.748 86.3943 177.908 86.8743 176.828 87.8343C175.748 88.7943 174.608 90.2343 173.408 92.1543C172.328 94.0743 171.248 96.5343 170.168 99.5343C169.088 102.414 168.248 105.834 167.648 109.794C172.448 105.954 175.868 102.174 177.908 98.4543C179.948 94.6143 180.968 91.4343 180.968 88.9143ZM256.2 99.8943C254.16 102.414 251.7 105.054 248.82 107.814C246.06 110.454 243 112.914 239.64 115.194C236.4 117.354 232.98 119.154 229.38 120.594C225.9 121.914 222.42 122.574 218.94 122.574C213.3 122.574 210.48 120.054 210.48 115.014C210.48 111.654 211.32 108.054 213 104.214C214.8 100.254 217.08 96.6543 219.84 93.4143C222.6 90.0543 225.6 87.2943 228.84 85.1343C232.2 82.8543 235.38 81.7143 238.38 81.7143C240.06 81.7143 241.2 82.0143 241.8 82.6143C242.52 83.2143 242.88 83.9943 242.88 84.9543C242.88 86.3943 242.4 87.9543 241.44 89.6343C240.6 91.3143 239.28 92.9343 237.48 94.4943C235.68 95.9343 233.4 97.1943 230.64 98.2743C227.88 99.2343 224.58 99.7143 220.74 99.7143C220.14 100.794 219.48 102.534 218.76 104.934C218.04 107.214 217.68 109.554 217.68 111.954C217.68 116.874 219.9 119.334 224.34 119.334C227.1 119.334 229.92 118.674 232.8 117.354C235.8 116.034 238.68 114.414 241.44 112.494C244.2 110.454 246.72 108.294 249 106.014C251.4 103.614 253.38 101.394 254.94 99.3543C255.18 99.1143 255.42 99.0543 255.66 99.1743C256.02 99.2943 256.2 99.5343 256.2 99.8943ZM237.3 85.8543C237.3 84.2943 236.52 83.5143 234.96 83.5143C233.76 83.5143 232.5 83.9943 231.18 84.9543C229.98 85.7943 228.78 86.9343 227.58 88.3743C226.38 89.8143 225.24 91.3743 224.16 93.0543C223.08 94.7343 222.18 96.3543 221.46 97.9143C221.7 98.0343 222.12 98.1543 222.72 98.2743C223.32 98.2743 223.8 98.2743 224.16 98.2743C227.64 98.2743 230.7 97.0743 233.34 94.6743C235.98 92.1543 237.3 89.2143 237.3 85.8543ZM287.714 84.5943C286.994 85.4343 286.214 86.4543 285.374 87.6543C284.654 88.8543 284.174 89.7543 283.934 90.3543C283.814 90.7143 283.574 90.8943 283.214 90.8943C283.094 90.8943 282.914 90.7143 282.674 90.3543C282.434 89.9943 282.074 89.6343 281.594 89.2743C281.234 88.7943 280.694 88.3743 279.974 88.0143C279.254 87.6543 278.234 87.4743 276.914 87.4743C275.354 87.4743 273.614 88.0143 271.694 89.0943C269.774 90.1743 268.094 91.3743 266.654 92.6943C264.374 94.6143 262.334 96.7143 260.534 98.9943C258.854 101.274 257.234 103.674 255.674 106.194C254.114 108.594 252.614 111.114 251.174 113.754C249.734 116.274 248.174 118.854 246.494 121.494C246.374 121.854 246.014 122.034 245.414 122.034C245.174 122.034 244.634 121.674 243.794 120.954C243.074 120.234 242.714 119.694 242.714 119.334C242.714 118.614 243.134 117.534 243.974 116.094C245.894 112.734 247.814 109.374 249.734 106.014C251.774 102.534 253.634 99.2943 255.314 96.2943C257.114 93.2943 258.674 90.7143 259.994 88.5543C261.314 86.2743 262.214 84.5943 262.694 83.5143C263.294 82.4343 263.714 81.8943 263.954 81.8943C264.194 81.8943 264.794 82.1943 265.754 82.7943C266.714 83.3943 267.194 84.2343 267.194 85.3143C267.194 85.6743 266.954 86.2743 266.474 87.1143C266.114 87.9543 265.634 88.8543 265.034 89.8143C264.554 90.6543 264.074 91.4943 263.594 92.3343C263.114 93.1743 262.754 93.7743 262.514 94.1343C262.154 94.7343 262.094 95.0343 262.334 95.0343C262.574 95.0343 262.874 94.8543 263.234 94.4943C264.434 93.2943 265.874 91.9743 267.554 90.5343C269.354 89.0943 271.214 87.7743 273.134 86.5743C275.054 85.2543 276.914 84.1743 278.714 83.3343C280.634 82.4943 282.314 82.0743 283.754 82.0743C284.834 82.0743 285.734 82.3743 286.454 82.9743C287.294 83.4543 287.714 83.9943 287.714 84.5943ZM306.931 88.3743C306.571 88.9743 306.271 89.0343 306.031 88.5543C305.311 86.9943 303.811 86.2143 301.531 86.2143C299.851 86.2143 298.171 86.6943 296.491 87.6543C294.811 88.6143 293.971 90.0543 293.971 91.9743C293.971 92.9343 294.271 93.8943 294.871 94.8543C295.471 95.8143 296.311 97.0743 297.391 98.6343C298.351 100.074 299.251 101.514 300.091 102.954C300.931 104.394 301.351 105.894 301.351 107.454C301.351 110.574 300.631 113.154 299.191 115.194C297.751 117.114 296.011 118.674 293.971 119.874C292.051 121.074 290.071 121.854 288.031 122.214C285.991 122.694 284.371 122.934 283.171 122.934C275.851 122.934 271.831 120.474 271.111 115.554C271.711 115.194 272.371 114.774 273.091 114.294C273.931 113.694 274.531 113.154 274.891 112.674C275.131 112.674 275.311 112.914 275.431 113.394C276.031 115.554 277.171 117.414 278.851 118.974C280.531 120.534 282.511 121.314 284.791 121.314C285.751 121.314 286.891 121.254 288.211 121.134C289.531 120.894 290.731 120.474 291.811 119.874C293.011 119.154 294.031 118.194 294.871 116.994C295.711 115.794 296.131 114.174 296.131 112.134C296.131 110.574 295.831 109.134 295.231 107.814C294.631 106.494 293.971 105.294 293.251 104.214C292.531 103.014 291.811 101.814 291.091 100.614C290.371 99.4143 290.011 98.0943 290.011 96.6543C290.011 95.2143 290.491 93.6543 291.451 91.9743C292.531 90.2943 293.851 88.7943 295.411 87.4743C296.971 86.0343 298.651 84.8343 300.451 83.8743C302.371 82.9143 304.231 82.4343 306.031 82.4343C307.951 82.4343 308.911 83.0343 308.911 84.2343C308.551 84.8343 308.191 85.5543 307.831 86.3943C307.471 87.1143 307.171 87.7743 306.931 88.3743Z" fill="black"/>
</svg>
