<svg width="55" height="38" viewBox="0 0 55 38" fill="none" xmlns="http://www.w3.org/2000/svg">
<path d="M53.6831 15.8L45.4831 8.3C45.2831 8.1 45.0831 8 44.7831 8H35.6831C35.2831 8 34.9831 8.1 34.6831 8.2V3C34.6831 1.3 33.3831 0 31.6831 0H3.68314C1.98314 0 0.683136 1.3 0.683136 3V19C0.683136 19.8 0.983136 20.5 1.48314 21C0.983136 21.5 0.683136 22.2 0.683136 23V29C0.683136 30.7 1.98314 32 3.68314 32H6.68314C6.68314 35.3 9.38314 38 12.6831 38C15.9831 38 18.6831 35.3 18.6831 32H31.6831C32.4831 32 33.1831 31.7 33.6831 31.2C34.1831 31.7 34.8831 32 35.6831 32H36.6831C36.6831 35.3 39.3831 38 42.6831 38C45.9831 38 48.6831 35.3 48.6831 32H51.6831C53.3831 32 54.6831 30.7 54.6831 29V18C54.6831 17.2 54.2831 16.4 53.6831 15.8ZM2.68314 3C2.68314 2.4 3.08314 2 3.68314 2H31.6831C32.2831 2 32.6831 2.4 32.6831 3V11V19C32.6831 19.6 32.2831 20 31.6831 20H3.68314C3.08314 20 2.68314 19.6 2.68314 19V3ZM12.6831 36C10.4831 36 8.68314 34.2 8.68314 32C8.68314 29.8 10.4831 28 12.6831 28C14.8831 28 16.6831 29.8 16.6831 32C16.6831 34.2 14.8831 36 12.6831 36ZM31.6831 30H18.2831C17.4831 27.7 15.2831 26 12.6831 26C10.0831 26 7.88314 27.7 7.08314 30H3.68314C3.08314 30 2.68314 29.6 2.68314 29V23C2.68314 22.4 3.08314 22 3.68314 22H31.6831C32.2831 22 32.6831 22.4 32.6831 23V29C32.6831 29.6 32.2831 30 31.6831 30ZM42.6831 36C40.4831 36 38.6831 34.2 38.6831 32C38.6831 29.8 40.4831 28 42.6831 28C44.8831 28 46.6831 29.8 46.6831 32C46.6831 34.2 44.8831 36 42.6831 36ZM52.6831 29C52.6831 29.6 52.2831 30 51.6831 30H48.4831H48.2831C47.4831 27.7 45.2831 26 42.5831 26C39.9831 26 37.7831 27.7 36.9831 30H35.6831C35.0831 30 34.6831 29.6 34.6831 29V23V19V11C34.6831 10.4 35.0831 10 35.6831 10H44.3831L52.3831 17.3C52.5831 17.5 52.6831 17.8 52.6831 18V29Z" fill="black"/>
<path d="M53.6831 15.8L45.4831 8.3C45.2831 8.1 45.0831 8 44.7831 8H35.6831C35.2831 8 34.9831 8.1 34.6831 8.2V3C34.6831 1.3 33.3831 0 31.6831 0H3.68314C1.98314 0 0.683136 1.3 0.683136 3V19C0.683136 19.8 0.983136 20.5 1.48314 21C0.983136 21.5 0.683136 22.2 0.683136 23V29C0.683136 30.7 1.98314 32 3.68314 32H6.68314C6.68314 35.3 9.38314 38 12.6831 38C15.9831 38 18.6831 35.3 18.6831 32H31.6831C32.4831 32 33.1831 31.7 33.6831 31.2C34.1831 31.7 34.8831 32 35.6831 32H36.6831C36.6831 35.3 39.3831 38 42.6831 38C45.9831 38 48.6831 35.3 48.6831 32H51.6831C53.3831 32 54.6831 30.7 54.6831 29V18C54.6831 17.2 54.2831 16.4 53.6831 15.8ZM2.68314 3C2.68314 2.4 3.08314 2 3.68314 2H31.6831C32.2831 2 32.6831 2.4 32.6831 3V11V19C32.6831 19.6 32.2831 20 31.6831 20H3.68314C3.08314 20 2.68314 19.6 2.68314 19V3ZM12.6831 36C10.4831 36 8.68314 34.2 8.68314 32C8.68314 29.8 10.4831 28 12.6831 28C14.8831 28 16.6831 29.8 16.6831 32C16.6831 34.2 14.8831 36 12.6831 36ZM31.6831 30H18.2831C17.4831 27.7 15.2831 26 12.6831 26C10.0831 26 7.88314 27.7 7.08314 30H3.68314C3.08314 30 2.68314 29.6 2.68314 29V23C2.68314 22.4 3.08314 22 3.68314 22H31.6831C32.2831 22 32.6831 22.4 32.6831 23V29C32.6831 29.6 32.2831 30 31.6831 30ZM42.6831 36C40.4831 36 38.6831 34.2 38.6831 32C38.6831 29.8 40.4831 28 42.6831 28C44.8831 28 46.6831 29.8 46.6831 32C46.6831 34.2 44.8831 36 42.6831 36ZM52.6831 29C52.6831 29.6 52.2831 30 51.6831 30H48.4831H48.2831C47.4831 27.7 45.2831 26 42.5831 26C39.9831 26 37.7831 27.7 36.9831 30H35.6831C35.0831 30 34.6831 29.6 34.6831 29V23V19V11C34.6831 10.4 35.0831 10 35.6831 10H44.3831L52.3831 17.3C52.5831 17.5 52.6831 17.8 52.6831 18V29Z" stroke="black"/>
</svg>
