<svg width="63" height="64" viewBox="0 0 63 64" fill="none" xmlns="http://www.w3.org/2000/svg">
<g clip-path="url(#clip0_476_3975)">
<path d="M58.1768 22.2856H54.1884C52.9826 22.2856 52.055 22.6666 51.4985 23.9047L43.8927 41.7142H49.2724C49.2724 41.7142 50.1999 39.3333 50.3855 38.7618C50.942 38.7618 56.2289 38.7618 56.971 38.7618C57.1565 39.4285 57.6202 41.619 57.6202 41.619H62.4434L58.1768 22.2856ZM51.8695 34.7618C52.3333 33.619 53.9101 29.3333 53.9101 29.3333C53.9101 29.4285 54.3739 28.1904 54.5594 27.5237L54.9304 29.238C54.9304 29.238 55.9507 33.9047 56.1362 34.8571H51.8695V34.7618Z" fill="black"/>
<path d="M44.2638 35.3333C44.2638 39.3333 40.7392 42 35.2667 42C32.9479 42 30.7218 41.5238 29.516 40.9524L30.258 36.5714L30.9073 36.8571C32.5769 37.619 33.6899 37.9048 35.7305 37.9048C37.2145 37.9048 38.7914 37.3333 38.7914 36C38.7914 35.1429 38.1421 34.5714 36.1015 33.619C34.1537 32.6667 31.5566 31.1429 31.5566 28.381C31.5566 24.5714 35.174 22 40.2754 22C42.2232 22 43.8928 22.381 44.9131 22.8571L44.1711 27.0476L43.8 26.6667C42.8725 26.2857 41.6667 25.9048 39.9044 25.9048C37.9566 26 37.029 26.8571 37.029 27.619C37.029 28.4762 38.1421 29.1429 39.9044 30C42.8725 31.4286 44.2638 33.0476 44.2638 35.3333Z" fill="black"/>
<path d="M-1 22.4762L-0.907246 22.0952H7.06956C8.18261 22.0952 9.01739 22.4762 9.29565 23.7143L11.058 32.2857C9.29565 27.7143 5.21449 24 -1 22.4762Z" fill="#7B7B7B"/>
<path d="M22.2812 22.2857L14.2116 41.619H8.73912L4.10144 25.4285C7.44057 27.619 10.2232 31.0476 11.2435 33.4285L11.8 35.4285L16.8087 22.1904H22.2812V22.2857Z" fill="black"/>
<path d="M24.4145 22.1904H29.5159L26.2695 41.619H21.1681L24.4145 22.1904Z" fill="black"/>
</g>
<defs>
<clipPath id="clip0_476_3975">
<rect width="64" height="20" fill="white" transform="translate(-1 22)"/>
</clipPath>
</defs>
</svg>
