<svg width="56" height="38" viewBox="0 0 56 38" fill="none" xmlns="http://www.w3.org/2000/svg">
<path d="M52.4541 37.1081H45.1089C44.2345 37.1081 43.3601 36.5422 42.8354 35.7877L42.1359 34.5616C41.6987 33.9958 37.6763 28.9971 35.2279 27.3938C34.2661 26.8279 33.9163 26.9222 33.9163 26.9222C33.9163 26.9222 33.8288 27.2052 33.8288 27.2995V32.2981C33.8288 34.9389 31.8177 37.0138 29.4567 37.0138H27.7079C27.2707 37.0138 17.4771 36.8252 9.6947 24.2815C3.57373 14.4729 1.56255 8.05955 0.863007 4.38132C0.688122 3.5325 0.95045 2.68368 1.38766 2.02348C1.91232 1.36329 2.61186 0.986037 3.39884 0.986037H9.60726C10.744 0.986037 11.7059 1.74054 12.0557 2.96662C12.7552 5.13583 14.504 10.7003 16.6027 14.2842C19.6632 19.7544 20.8873 20.226 21.2371 20.226C21.4994 19.7544 21.412 17.8681 21.412 16.6421C21.412 16.0762 21.412 15.6046 21.412 15.0387C21.412 14.6615 21.412 14.1899 21.412 13.7184C21.412 11.3605 21.4994 8.15386 20.625 6.64484L18.8762 3.90975C18.5264 3.34387 18.439 2.58937 18.7887 1.92917C19.0511 1.26898 19.6632 0.891724 20.3627 0.891724H30.3311C31.8177 0.891724 32.9544 2.21211 32.9544 3.72113V17.3023C32.9544 17.3966 33.0419 17.4909 33.0419 17.4909C33.0419 17.4909 33.3916 17.4909 34.3535 16.5478C36.3647 14.3785 38.9005 10.3231 41.4363 4.75857L42.3108 2.58937C42.748 1.55192 43.7098 0.891724 44.7592 0.891724H51.2299C52.1043 0.891724 52.8913 1.36329 53.416 2.1178C53.9406 2.87231 54.0281 3.90975 53.6783 4.75857L52.9788 6.73916V6.83347C52.8913 7.0221 50.5304 12.0207 48.082 15.6989C46.1582 18.5283 45.3713 19.8487 45.5461 20.3203C45.721 20.6032 46.8578 22.0179 47.9945 23.1497C50.0932 25.5075 52.7164 28.5256 53.6783 30.5061C54.1155 31.355 54.5527 32.1095 54.815 32.7697C55.2523 33.6185 55.2523 34.6559 54.7276 35.5991C54.2029 36.6365 53.416 37.1081 52.4541 37.1081ZM34.0912 25.036C34.7033 25.036 35.4028 25.3189 36.1898 25.7905C39.0754 27.5824 43.4475 33.1469 43.6224 33.4299L43.7098 33.5242L44.4094 34.7503C44.5843 35.0332 44.8466 35.2218 45.1964 35.2218H52.4541C52.8913 35.2218 53.1536 34.9389 53.2411 34.7503C53.3285 34.6559 53.5034 34.2787 53.2411 33.8071C52.8913 33.1469 52.5415 32.3924 52.1043 31.5436C51.2299 29.846 48.6066 26.8279 46.6829 24.5644C44.7592 22.3009 44.0596 21.5464 43.8847 21.0748C43.3601 19.6601 44.1471 18.5283 46.6829 14.7558C48.9564 11.3605 51.1425 6.73916 51.4048 6.17328L52.1043 4.1927C52.1918 3.90976 52.1918 3.5325 52.0169 3.34387C51.842 3.06093 51.5797 2.96662 51.3173 2.96662H44.8466C44.4968 2.96662 44.1471 3.15525 44.0596 3.5325L43.1852 5.79602C41.2615 9.8515 38.4633 15.2274 35.7526 18.1511C34.6158 19.3772 33.5665 19.7544 32.6921 19.4715C31.6428 19.0942 31.3804 17.8681 31.3804 17.7738C31.3804 17.6795 31.3804 17.6795 31.3804 17.5852V3.90975C31.3804 3.34387 30.9432 2.96662 30.506 2.96662H20.3627L22.1115 5.70171C23.2483 7.68229 23.2483 11.1719 23.1609 13.907C23.1609 14.3785 23.1609 14.7558 23.1609 15.1331C23.1609 15.6046 23.1609 16.1705 23.1609 16.6421C23.2483 19.2828 23.2483 21.735 21.6743 22.1123C19.9255 22.4895 18.0892 20.5089 15.1161 15.3217C13.105 11.6435 11.3561 6.45622 10.4817 3.62681C10.3942 3.24956 10.0445 2.96662 9.60726 2.96662H3.48628C3.22396 2.96662 2.96163 3.06093 2.78674 3.34387C2.61186 3.5325 2.61186 3.81544 2.61186 4.09838C3.22396 7.58798 5.23513 13.7184 11.1812 23.3383C18.439 35.0332 27.6204 35.2218 27.7079 35.2218H29.4567C30.9432 35.2218 32.08 33.9014 32.08 32.3924V27.3938C32.08 27.2995 32.08 25.9791 33.0419 25.3189C33.3916 25.1303 33.7414 25.036 34.0912 25.036Z" fill="black"/>
</svg>
