<svg width="51" height="41" viewBox="0 0 51 41" fill="none" xmlns="http://www.w3.org/2000/svg">
<path d="M50.3648 36C50.3648 38.762 47.9363 41 44.9392 41H5.87482C2.87772 41 0.449219 38.762 0.449219 36V6.99997C0.449219 4.79097 2.39267 2.99997 4.7897 2.99997H26.6777L35.4661 0.0659712C36.0227 -0.121029 36.6391 0.143972 36.842 0.654971L37.7676 2.99997H41.6838C44.0808 2.99997 46.0243 4.79097 46.0243 6.99997V8.99997C48.4213 8.99997 50.3648 10.791 50.3648 13V36ZM4.7897 4.99997C3.59173 4.99997 2.61946 5.89597 2.61946 6.99997C2.61946 8.10397 3.59173 8.99997 4.7897 8.99997H8.52794H8.73303C8.74008 8.99747 8.74578 8.99347 8.75147 8.98947C8.75717 8.98547 8.76287 8.98147 8.76992 8.97897L20.6867 4.99997H4.7897ZM36.3428 5.18097L35.1904 2.25697H35.1894L32.9638 2.99997H32.967L26.9837 4.99997H26.9728L14.9942 8.99997H37.849L36.3428 5.18097ZM43.854 6.99997C43.854 5.89597 42.8818 4.99997 41.6838 4.99997H38.5554L40.1332 8.99997H43.854V6.99997ZM46.0243 11H4.7897C3.99539 11 3.25968 10.789 2.61946 10.445V36C2.61946 37.657 4.07786 39 5.87482 39H44.9392C46.7372 39 48.1945 37.657 48.1945 36V29H43.854C41.457 29 39.5136 27.209 39.5136 25C39.5136 22.791 41.457 21 43.854 21H48.1945V13C48.1945 11.896 47.2223 11 46.0243 11ZM43.854 23C42.6561 23 41.6838 23.896 41.6838 25C41.6838 26.104 42.6561 27 43.854 27H48.1945V23H43.854ZM43.854 24H46.0243V26H43.854V24Z" fill="black"/>
<path d="M50.3648 36C50.3648 38.762 47.9363 41 44.9392 41H5.87482C2.87772 41 0.449219 38.762 0.449219 36V6.99997C0.449219 4.79097 2.39267 2.99997 4.7897 2.99997H26.6777L35.4661 0.0659712C36.0227 -0.121029 36.6391 0.143972 36.842 0.654971L37.7676 2.99997H41.6838C44.0808 2.99997 46.0243 4.79097 46.0243 6.99997V8.99997C48.4213 8.99997 50.3648 10.791 50.3648 13V36ZM4.7897 4.99997C3.59173 4.99997 2.61946 5.89597 2.61946 6.99997C2.61946 8.10397 3.59173 8.99997 4.7897 8.99997H8.52794H8.73303C8.74008 8.99747 8.74578 8.99347 8.75147 8.98947C8.75717 8.98547 8.76287 8.98147 8.76992 8.97897L20.6867 4.99997H4.7897ZM36.3428 5.18097L35.1904 2.25697H35.1894L32.9638 2.99997H32.967L26.9837 4.99997H26.9728L14.9942 8.99997H37.849L36.3428 5.18097ZM43.854 6.99997C43.854 5.89597 42.8818 4.99997 41.6838 4.99997H38.5554L40.1332 8.99997H43.854V6.99997ZM46.0243 11H4.7897C3.99539 11 3.25968 10.789 2.61946 10.445V36C2.61946 37.657 4.07786 39 5.87482 39H44.9392C46.7372 39 48.1945 37.657 48.1945 36V29H43.854C41.457 29 39.5136 27.209 39.5136 25C39.5136 22.791 41.457 21 43.854 21H48.1945V13C48.1945 11.896 47.2223 11 46.0243 11ZM43.854 23C42.6561 23 41.6838 23.896 41.6838 25C41.6838 26.104 42.6561 27 43.854 27H48.1945V23H43.854ZM43.854 24H46.0243V26H43.854V24Z" stroke="black"/>
</svg>
