<svg width="41" height="42" viewBox="0 0 41 42" fill="none" xmlns="http://www.w3.org/2000/svg">
<path d="M10.3401 37.2373C9.21052 36.5313 3.70393 40.626 2.85677 39.6376C2.0096 38.7905 5.68066 33.0015 4.97468 32.0131C2.71557 28.9069 1.44482 25.0946 1.44482 21C1.44482 10.5516 9.91649 1.93872 20.5061 1.93872C31.0956 1.93872 39.5673 10.5516 39.5673 21C39.5673 31.4484 31.0956 40.0612 20.5061 40.0612C19.0941 40.0612 17.8234 39.92 16.5526 39.6376" stroke="black" stroke-width="1.90612" stroke-miterlimit="10" stroke-linecap="round" stroke-linejoin="round"/>
<path d="M16.5526 11.3987L18.247 15.6345C18.3882 15.9169 18.247 16.1993 17.9646 16.3405C17.2586 16.764 16.2703 17.7524 17.3998 19.3055C18.8118 21.2823 22.624 26.2241 25.7303 22.9766C25.8715 22.8354 26.1539 22.6942 26.4363 22.8354L30.9545 24.8121C31.2369 24.9533 31.3781 25.3769 31.2369 25.6593C30.2485 27.636 26.4363 32.8602 16.9762 24.6709C7.37501 16.3405 13.5876 12.2458 15.7055 11.2575C15.9879 10.8339 16.4115 10.9751 16.5526 11.3987Z" stroke="black" stroke-width="1.90612" stroke-miterlimit="10" stroke-linecap="round" stroke-linejoin="round"/>
</svg>
